# xmcd
#
# Track frame offsets:
#	150
#	17033
#	40207
#	53158
#	77786
#	98079
#	112201
#	137203
#	154570
#	176979
#
# Disc length: 2569 seconds
#
# Revision: 0
# Processed by: cddbd v1.5.2PL0 Copyright (c) Steve Scherf et al.
# Submitted via: dBpowerAMP V4.0
#
DISCID=830a070a
DTITLE=Mick Abrahams - Leaving Home Blues
DYEAR=1900
DGENRE=Blues
TTITLE0=So Much Trouble
TTITLE1=Billy the Kid
TTITLE2=Gnatz
TTITLE3=Black Night is Falling
TTITLE4=Going Down Slow
TTITLE5=Driftin' Blues
TTITLE6=Leaving Home Blues
TTITLE7=How Long Blues
TTITLE8=Touble In Mind
TTITLE9=Jesus on the Mainline
EXTD=
EXTT0=
EXTT1=
EXTT2=
EXTT3=
EXTT4=
EXTT5=
EXTT6=
EXTT7=
EXTT8=
EXTT9=
PLAYORDER=
